<svg width="83" height="46" viewBox="0 0 83 46" fill="none" xmlns="http://www.w3.org/2000/svg">
<g clip-path="url(#clip0_1126_86200)">
<path d="M0.157715 0.112305H7.05935L10.7583 14.6079V0.112305H18.2237V36.2391H10.7583L6.85636 21.1377V36.2391H0.157715V0.112305Z" fill="white"/>
<path d="M28.2151 31.7289L27.561 36.2167H20.2534L26.8167 0.0898438H34.5754L41.1387 36.2167H33.8311L33.1771 31.7289H28.2151ZM29.0045 26.0069H32.3651L30.7186 13.1942L29.0271 26.0069H29.0045Z" fill="white"/>
<path d="M52.3937 0.112305H59.7464L53.0478 36.2391H45.4921L38.7935 0.112305H46.1462L46.8003 4.73474L49.2587 23.4265L51.7622 4.64499L52.4163 0.112305H52.3937Z" fill="white"/>
<path d="M75.8726 36.2167H68.2042V27.0616L61.2349 0.112305H68.7455L71.9933 17.1435L75.3088 0.112305H82.8194L75.8501 27.0616V36.2167H75.8726Z" fill="white"/>
<path d="M2.21028 45.8883H1.71408V42.0064H0.248047V41.5576H3.65375V42.0064H2.18772V45.8883H2.21028Z" fill="white"/>
<path d="M13.9836 45.8883L12.7206 44.2054H11.4801V45.8883H10.9839V41.5576H12.8559C13.104 41.5576 13.307 41.5801 13.51 41.6474C13.713 41.7147 13.8708 41.8044 14.0062 41.9166C14.1415 42.0288 14.2543 42.1635 14.3219 42.3205C14.3896 42.4776 14.4347 42.6571 14.4347 42.8591C14.4347 43.061 14.4121 43.1957 14.3445 43.3527C14.2768 43.4874 14.2092 43.622 14.0964 43.7342C13.9836 43.8464 13.8708 43.9362 13.713 44.0035C13.5776 44.0708 13.4198 44.1157 13.2393 44.1605L14.57 45.9332H13.9611L13.9836 45.8883ZM13.6453 42.2308C13.4423 42.0737 13.1717 42.0064 12.8333 42.0064H11.4801V43.7566H12.8108C12.9687 43.7566 13.1266 43.7566 13.2619 43.6893C13.3972 43.622 13.51 43.5996 13.6227 43.5098C13.713 43.4425 13.8032 43.3303 13.8483 43.2181C13.8934 43.1059 13.9385 42.9713 13.9385 42.8366C13.9385 42.5674 13.8483 42.343 13.6453 42.2083V42.2308Z" fill="white"/>
<path d="M25.9373 45.8883H25.4185L24.8998 44.7439H22.5315L22.0128 45.8883H21.5166L23.5014 41.5352H23.9525L25.9373 45.8883ZM23.7269 42.0961L22.7345 44.2952H24.7193L23.7269 42.0961Z" fill="white"/>
<path d="M33.7189 41.5576V45.8883H33.2227V41.5576H33.7189Z" fill="white"/>
<path d="M44.5899 41.5576H45.0636V45.8883H44.6801L41.8608 42.343V45.8883H41.3872V41.5576H41.8383L44.5674 45.0357V41.5576H44.5899Z" fill="white"/>
<path d="M53.2506 41.5576V45.8883H52.7544V41.5576H53.2506Z" fill="white"/>
<path d="M64.1221 41.5576H64.5958V45.8883H64.2124L61.3931 42.343V45.8883H60.9194V41.5576H61.3705L64.0996 45.0357V41.5576H64.1221Z" fill="white"/>
<path d="M75.2414 45.7536C74.9482 45.8883 74.6099 45.9556 74.249 45.9556C73.8881 45.9556 73.5949 45.8883 73.3243 45.7761C73.0536 45.6639 72.8281 45.5068 72.6251 45.3048C72.4221 45.1029 72.2868 44.8561 72.174 44.5868C72.0612 44.3175 72.0161 44.0258 72.0161 43.7117C72.0161 43.3975 72.0612 43.1283 72.174 42.859C72.2868 42.5897 72.4221 42.3429 72.6251 42.1409C72.8055 41.939 73.0536 41.7819 73.3017 41.6473C73.5498 41.5127 73.8656 41.4678 74.2039 41.4678C74.5422 41.4678 74.5422 41.4678 74.7001 41.5127C74.858 41.5351 74.9933 41.58 75.1286 41.6248C75.2639 41.6697 75.3767 41.737 75.4895 41.8044C75.6023 41.8717 75.715 41.9614 75.8278 42.0512L75.512 42.4327C75.4218 42.3653 75.3316 42.298 75.2414 42.2307C75.1512 42.1634 75.061 42.1185 74.9482 42.0736C74.8354 42.0288 74.7226 42.0063 74.6099 41.9614C74.4745 41.939 74.3392 41.9166 74.1813 41.9166C73.9332 41.9166 73.7302 41.9614 73.5273 42.0512C73.3243 42.1409 73.1438 42.2756 73.0085 42.4327C72.8732 42.5897 72.7604 42.7917 72.6702 42.9936C72.58 43.218 72.5349 43.4424 72.5349 43.6892C72.5349 43.9361 72.58 44.1829 72.6476 44.4073C72.7379 44.6317 72.8506 44.8112 72.986 44.9907C73.1438 45.1478 73.3243 45.2824 73.5273 45.3722C73.7302 45.4619 73.9783 45.5068 74.249 45.5068C74.5197 45.5068 74.7226 45.4619 74.9482 45.3722C75.1737 45.2824 75.3542 45.1927 75.512 45.058V43.9809H74.1813V43.5546H75.9857V45.2824C75.7827 45.4619 75.5346 45.619 75.2414 45.7536Z" fill="white"/>
</g>
<defs>
<clipPath id="clip0_1126_86200">
<rect width="83" height="46" fill="white"/>
</clipPath>
</defs>
</svg>
